<mxfile host="app.diagrams.net" modified="2023-10-22T18:14:15.845Z" agent="Mozilla/5.0 (X11; Linux x86_64; rv:109.0) Gecko/20100101 Firefox/115.0" etag="6T2AXb5AW_1R9ChSjsKv" version="22.0.6" type="device">
  <diagram name="PÃ¡gina-1" id="H1gAe4TEgG37sk8PaRr4">
    <mxGraphModel dx="1434" dy="728" grid="1" gridSize="10" guides="1" tooltips="1" connect="1" arrows="1" fold="1" page="1" pageScale="1" pageWidth="1169" pageHeight="827" math="0" shadow="0">
      <root>
        <mxCell id="0" />
        <mxCell id="1" parent="0" />
        <mxCell id="3jQ3pkgaZVPvUWSegzT8-2" value="yo" style="sketch=0;pointerEvents=1;shadow=0;dashed=0;html=1;strokeColor=none;labelPosition=center;verticalLabelPosition=bottom;verticalAlign=top;outlineConnect=0;align=center;shape=mxgraph.office.users.user;fillColor=#7FBA42;" parent="1" vertex="1">
          <mxGeometry x="161.97000000000003" y="228.5" width="46.06289999999999" height="49.9999" as="geometry" />
        </mxCell>
        <mxCell id="TQLesLiD590dkeh5ywUg-3" value="" style="edgeStyle=orthogonalEdgeStyle;rounded=0;orthogonalLoop=1;jettySize=auto;html=1;" edge="1" parent="1" source="3jQ3pkgaZVPvUWSegzT8-34" target="J3Js696kLdLq6cgxkuE6-3">
          <mxGeometry relative="1" as="geometry" />
        </mxCell>
        <mxCell id="3jQ3pkgaZVPvUWSegzT8-34" value="" style="points=[[0,0.5,0],[0.24,0,0],[0.5,0.28,0],[0.995,0.475,0],[0.5,0.72,0],[0.24,1,0]];verticalLabelPosition=middle;sketch=0;html=1;verticalAlign=middle;aspect=fixed;align=left;pointerEvents=1;shape=mxgraph.cisco19.key;fillColor=#005073;strokeColor=none;labelPosition=right;" parent="1" vertex="1">
          <mxGeometry x="160" y="198.5" width="50" height="22.5" as="geometry" />
        </mxCell>
        <mxCell id="J3Js696kLdLq6cgxkuE6-2" value="&lt;font color=&quot;#000000&quot;&gt;Ahsoka Tano&lt;br&gt;&lt;/font&gt;" style="sketch=0;pointerEvents=1;shadow=0;dashed=0;html=1;strokeColor=#001DBC;labelPosition=center;verticalLabelPosition=bottom;verticalAlign=top;outlineConnect=0;align=center;shape=mxgraph.office.users.user;fillColor=#0050ef;fontColor=#ffffff;" parent="1" vertex="1">
          <mxGeometry x="280" y="226" width="46.06289999999999" height="49.9999" as="geometry" />
        </mxCell>
        <mxCell id="TQLesLiD590dkeh5ywUg-4" value="" style="edgeStyle=orthogonalEdgeStyle;rounded=0;orthogonalLoop=1;jettySize=auto;html=1;" edge="1" parent="1" source="J3Js696kLdLq6cgxkuE6-3" target="J3Js696kLdLq6cgxkuE6-6">
          <mxGeometry relative="1" as="geometry" />
        </mxCell>
        <mxCell id="J3Js696kLdLq6cgxkuE6-3" value="" style="points=[[0,0.5,0],[0.24,0,0],[0.5,0.28,0],[0.995,0.475,0],[0.5,0.72,0],[0.24,1,0]];verticalLabelPosition=middle;sketch=0;html=1;verticalAlign=middle;aspect=fixed;align=left;pointerEvents=1;shape=mxgraph.cisco19.key;fillColor=#005073;strokeColor=none;labelPosition=right;" parent="1" vertex="1">
          <mxGeometry x="280" y="199" width="50" height="22.5" as="geometry" />
        </mxCell>
        <mxCell id="J3Js696kLdLq6cgxkuE6-5" value="&lt;font color=&quot;#000000&quot;&gt;Obi-Wan Kenobi&lt;br&gt;&lt;/font&gt;" style="sketch=0;pointerEvents=1;shadow=0;dashed=0;html=1;strokeColor=#6F0000;labelPosition=center;verticalLabelPosition=bottom;verticalAlign=top;outlineConnect=0;align=center;shape=mxgraph.office.users.user;fillColor=#a20025;fontColor=#ffffff;" parent="1" vertex="1">
          <mxGeometry x="401.97" y="230" width="46.06289999999999" height="49.9999" as="geometry" />
        </mxCell>
        <mxCell id="TQLesLiD590dkeh5ywUg-5" value="" style="edgeStyle=orthogonalEdgeStyle;rounded=0;orthogonalLoop=1;jettySize=auto;html=1;" edge="1" parent="1" source="J3Js696kLdLq6cgxkuE6-6" target="J3Js696kLdLq6cgxkuE6-9">
          <mxGeometry relative="1" as="geometry" />
        </mxCell>
        <mxCell id="J3Js696kLdLq6cgxkuE6-6" value="" style="points=[[0,0.5,0],[0.24,0,0],[0.5,0.28,0],[0.995,0.475,0],[0.5,0.72,0],[0.24,1,0]];verticalLabelPosition=middle;sketch=0;html=1;verticalAlign=middle;aspect=fixed;align=left;pointerEvents=1;shape=mxgraph.cisco19.key;fillColor=#005073;strokeColor=none;labelPosition=right;" parent="1" vertex="1">
          <mxGeometry x="400" y="199" width="50" height="22.5" as="geometry" />
        </mxCell>
        <mxCell id="J3Js696kLdLq6cgxkuE6-8" value="&lt;font color=&quot;#000000&quot;&gt;Anakin Skywalker&lt;/font&gt;" style="sketch=0;pointerEvents=1;shadow=0;dashed=0;html=1;strokeColor=#432D57;labelPosition=center;verticalLabelPosition=bottom;verticalAlign=top;outlineConnect=0;align=center;shape=mxgraph.office.users.user;fillColor=#76608a;fontColor=#ffffff;" parent="1" vertex="1">
          <mxGeometry x="521.97" y="230" width="46.06289999999999" height="49.9999" as="geometry" />
        </mxCell>
        <mxCell id="J3Js696kLdLq6cgxkuE6-9" value="" style="points=[[0,0.5,0],[0.24,0,0],[0.5,0.28,0],[0.995,0.475,0],[0.5,0.72,0],[0.24,1,0]];verticalLabelPosition=middle;sketch=0;html=1;verticalAlign=middle;aspect=fixed;align=left;pointerEvents=1;shape=mxgraph.cisco19.key;fillColor=#005073;strokeColor=none;labelPosition=right;" parent="1" vertex="1">
          <mxGeometry x="520" y="199" width="50" height="22.5" as="geometry" />
        </mxCell>
      </root>
    </mxGraphModel>
  </diagram>
</mxfile>
